<svg width="609" height="599" viewBox="0 0 609 599" fill="none" xmlns="http://www.w3.org/2000/svg">
<path d="M308.824 577.052C469.38 577.052 599.536 511.514 599.536 430.669C599.536 349.823 469.38 284.285 308.824 284.285C148.268 284.285 18.1113 349.823 18.1113 430.669C18.1113 511.514 148.268 577.052 308.824 577.052Z" fill="#FAFAFA"/>
<path d="M474.558 525.167C518.303 525.167 553.765 503.622 553.765 477.044C553.765 450.466 518.303 428.92 474.558 428.92C430.814 428.92 395.352 450.466 395.352 477.044C395.352 503.622 430.814 525.167 474.558 525.167Z" fill="#E0E0E0"/>
<path d="M286.535 390.692L235.781 361.88C234.938 361.455 234.005 361.233 233.058 361.233C232.112 361.233 231.179 361.455 230.336 361.88L62.1182 457.42C61.7886 457.528 61.5019 457.736 61.2988 458.013C61.0956 458.291 60.9863 458.624 60.9863 458.966C60.9863 459.307 61.0956 459.641 61.2988 459.918C61.5019 460.195 61.7886 460.403 62.1182 460.511L112.86 489.335C113.705 489.75 114.637 489.967 115.582 489.967C116.527 489.967 117.459 489.75 118.305 489.335L133.298 480.817L271.529 402.528L286.547 393.842C286.886 393.735 287.182 393.523 287.392 393.24C287.601 392.956 287.713 392.613 287.712 392.263C287.71 391.912 287.596 391.57 287.384 391.288C287.172 391.006 286.875 390.797 286.535 390.692Z" fill="#E0E0E0"/>
<path d="M514.69 459.145L506.846 455.048C506.846 455.048 507.613 417.383 515.554 388.212C523.691 358.345 547.369 325.352 569.743 337.716C592.118 350.079 552.35 375.489 540.389 400.012C528.429 424.535 514.69 459.145 514.69 459.145Z" fill="#6A8FD4"/>
<path opacity="0.15" d="M514.69 459.145L506.846 455.048C506.846 455.048 507.613 417.383 515.554 388.212C523.691 358.345 547.369 325.352 569.743 337.716C592.118 350.079 552.35 375.489 540.389 400.012C528.429 424.535 514.69 459.145 514.69 459.145Z" fill="black"/>
<path d="M513.654 450.209C513.55 450.205 513.448 450.182 513.353 450.14C513.258 450.098 513.173 450.038 513.102 449.964C513.03 449.889 512.975 449.801 512.938 449.706C512.901 449.61 512.884 449.508 512.887 449.406C514.568 390.955 540.548 355.267 562.289 342.472C562.47 342.366 562.686 342.334 562.891 342.385C563.095 342.435 563.271 342.564 563.379 342.742C563.487 342.92 563.519 343.133 563.468 343.334C563.417 343.535 563.286 343.708 563.105 343.814C541.705 356.405 516.139 391.626 514.471 449.442C514.469 449.545 514.446 449.647 514.404 449.742C514.362 449.836 514.302 449.922 514.226 449.993C514.15 450.065 514.06 450.12 513.962 450.157C513.864 450.194 513.759 450.212 513.654 450.209Z" fill="white"/>
<path d="M518.234 460.943L511.23 457.409C511.23 457.409 512.095 438.912 526.504 414.808C539.293 393.4 565.212 376.628 576.101 382.606C584.554 387.23 586.503 397.365 578.403 404.11C570.303 410.854 532.911 425.003 518.234 460.943Z" fill="#6A8FD4"/>
<path d="M515.419 455.036C516.637 455.276 517.064 452.317 517.307 451.562C517.77 450.148 518.257 448.759 518.793 447.369C519.842 444.666 521.034 442.019 522.362 439.438C524.92 434.474 527.916 429.74 531.314 425.29C534.491 421.124 537.954 417.177 541.68 413.478C545.041 410.15 548.578 406.999 552.276 404.037C555.37 401.545 558.585 399.185 561.886 396.969C564.322 395.34 566.758 393.782 569.304 392.321C570.631 391.554 571.959 390.799 573.335 390.105L573.725 389.913C573.943 389.808 574.11 389.622 574.189 389.396C574.268 389.171 574.252 388.923 574.145 388.709C574.039 388.494 573.85 388.33 573.62 388.253C573.391 388.175 573.139 388.191 572.921 388.296C572.069 388.703 571.253 389.158 570.485 389.613C568.342 390.811 566.247 392.009 564.188 393.351C561.135 395.292 558.155 397.344 555.248 399.509C551.643 402.192 548.18 405.04 544.858 408.051C541.073 411.461 537.509 415.102 534.189 418.952C530.589 423.104 527.331 427.53 524.445 432.19C521.375 437.122 518.805 442.338 516.771 447.764C516.39 448.811 516.024 449.853 515.675 450.891C515.163 451.927 514.853 453.049 514.762 454.198C514.777 454.38 514.843 454.555 514.952 454.703C515.062 454.851 515.211 454.966 515.383 455.036H515.419Z" fill="white"/>
<path d="M117.951 426.296C117.951 426.296 118.146 402.803 108.755 383.36C99.3642 363.916 84.6751 350.762 69.779 347.755C54.8828 344.748 41.1438 356.848 56.0034 368.121C70.863 379.394 98.1584 392.44 106.879 428.955L117.951 426.296Z" fill="#6A8FD4"/>
<path opacity="0.15" d="M117.951 426.296C117.951 426.296 118.146 402.803 108.755 383.36C99.3642 363.916 84.6751 350.762 69.779 347.755C54.8828 344.748 41.1438 356.848 56.0034 368.121C70.863 379.394 98.1584 392.44 106.879 428.955L117.951 426.296Z" fill="black"/>
<path d="M111.739 422.235C111.584 422.235 111.434 422.177 111.321 422.072C111.208 421.967 111.139 421.824 111.13 421.672C108.84 384.066 77.3428 359.615 61.7767 355.446C61.6221 355.404 61.4907 355.304 61.4109 355.167C61.331 355.03 61.3093 354.868 61.3504 354.715C61.3933 354.56 61.4966 354.428 61.6379 354.347C61.7793 354.267 61.9473 354.244 62.1056 354.284C77.9396 358.537 110.022 383.396 112.348 421.6C112.352 421.757 112.295 421.91 112.189 422.028C112.083 422.146 111.935 422.22 111.776 422.235H111.739Z" fill="white"/>
<path d="M119.875 458.546C122.892 454.801 124.917 450.378 125.767 445.673C126.618 440.968 126.267 436.13 124.747 431.591C123.863 428.851 122.448 426.304 120.581 424.092C119.083 422.355 116.927 421.456 115.173 420.006C111.397 416.928 107.013 413.657 105.649 408.769C104.552 404.876 104.784 401.186 102.591 397.532C101.3 395.244 99.2424 393.466 96.7693 392.5C93.5416 391.302 89.985 392.093 86.5746 392.5C81.7026 393.039 78.0486 391.386 73.8344 389.182C69.1938 386.786 63.7737 384.893 58.7433 386.367C57.1074 386.843 55.5915 387.653 54.2939 388.743C52.9963 389.833 51.9461 391.178 51.2111 392.693C50.4762 394.208 50.073 395.857 50.0277 397.535C49.9824 399.213 50.296 400.881 50.9481 402.432C52.0687 405.115 54.1393 407.296 55.6618 409.788C57.1843 412.279 57.9882 415.131 56.8798 417.85C56.0272 419.863 54.4438 421.444 53.8104 423.493C52.0078 428.884 53.0187 433.676 58.4632 436.455C64.1513 439.318 73.0792 437.162 75.9293 444.194C77.0012 446.866 77.0377 449.825 77.6223 452.64C78.8224 458.306 82.1716 463.309 86.9888 466.633C93.5294 471.101 102.409 470.011 109.193 466.896C113.361 464.961 117.017 462.103 119.875 458.546Z" fill="#6A8FD4"/>
<path d="M68.5975 424.522C68.7306 424.545 68.8674 424.524 68.9872 424.462C73.7845 422.638 78.9328 421.882 84.0627 422.246C89.1926 422.611 94.1768 424.088 98.6577 426.571C98.8112 426.652 98.991 426.669 99.1577 426.62C99.3243 426.57 99.4643 426.458 99.5469 426.307C99.5896 426.234 99.6169 426.152 99.6272 426.068C99.6375 425.984 99.6305 425.899 99.6066 425.817C99.5828 425.735 99.5426 425.66 99.4884 425.594C99.4342 425.528 99.3671 425.473 99.2911 425.433C94.6357 422.861 89.4588 421.336 84.1327 420.968C78.8066 420.599 73.4636 421.396 68.4879 423.3C68.3709 423.364 68.2762 423.46 68.2163 423.578C68.1565 423.695 68.1343 423.827 68.1528 423.957C68.1713 424.087 68.2296 424.209 68.3199 424.305C68.4102 424.402 68.5283 424.469 68.6584 424.498L68.5975 424.522Z" fill="white"/>
<path d="M111.13 458.75C110.971 458.753 110.816 458.694 110.7 458.587C110.584 458.479 110.515 458.331 110.509 458.175C109.376 431.1 81.74 402.468 63.2142 394.681C63.1394 394.65 63.0714 394.606 63.0143 394.55C62.9571 394.493 62.9119 394.427 62.8813 394.353C62.8507 394.279 62.8353 394.201 62.836 394.121C62.8367 394.042 62.8534 393.963 62.8853 393.89C62.952 393.743 63.0752 393.627 63.2281 393.569C63.381 393.51 63.5511 393.514 63.7014 393.578C82.5195 401.509 110.582 430.621 111.739 458.151C111.743 458.231 111.73 458.311 111.701 458.386C111.673 458.462 111.63 458.531 111.575 458.59C111.519 458.649 111.453 458.696 111.378 458.73C111.304 458.764 111.224 458.782 111.142 458.785L111.13 458.75Z" fill="white"/>
<path d="M263.674 71.8798L125.821 150.133C124.456 151.01 123.322 152.192 122.511 153.583C121.7 154.974 121.236 156.534 121.156 158.136V477.439C121.156 480.362 123.251 481.548 125.821 480.074L263.674 401.797C265.03 400.923 266.159 399.747 266.969 398.366C267.779 396.984 268.249 395.435 268.339 393.842V74.4915C268.339 71.5684 266.244 70.3704 263.674 71.8798ZM261.628 370.182C261.628 372.686 259.838 374.279 257.633 375.525L131.4 447.237C129.207 448.435 127.405 447.477 127.405 444.961V179.424C127.405 178.051 127.773 176.703 128.473 175.514C129.172 174.326 130.177 173.34 131.387 172.656L257.621 100.931C258.026 100.7 258.486 100.577 258.954 100.576C259.423 100.575 259.883 100.696 260.289 100.925C260.696 101.155 261.033 101.485 261.268 101.884C261.503 102.282 261.627 102.735 261.628 103.196V370.182Z" fill="#455A64"/>
<path d="M261.628 370.183C261.628 372.686 259.838 374.28 257.633 375.526L131.399 447.238C129.207 448.436 127.404 447.478 127.404 444.962V179.425C127.405 178.052 127.773 176.703 128.472 175.515C129.172 174.327 130.177 173.341 131.387 172.656L257.621 100.932C258.026 100.701 258.486 100.578 258.954 100.577C259.423 100.576 259.883 100.696 260.289 100.926C260.695 101.155 261.033 101.486 261.268 101.885C261.503 102.283 261.627 102.736 261.628 103.196V370.183Z" fill="#263238"/>
<path d="M131.399 447.238L257.633 375.55C258.519 375.078 259.338 374.494 260.069 373.812L127.404 300.327V444.962C127.404 447.477 129.207 448.484 131.399 447.238Z" fill="#37474F"/>
<path d="M251.409 365.522V104.466L131.387 172.656C130.177 173.34 129.172 174.326 128.472 175.515C127.773 176.703 127.405 178.052 127.404 179.425V439.019L247.414 370.865C249.618 369.619 251.409 368.026 251.409 365.522Z" fill="#6A8FD4"/>
<path d="M125.236 480.398C123.844 480.976 122.341 481.249 120.831 481.199C119.321 481.15 117.84 480.778 116.49 480.111L111.156 477.08C109.794 476.213 108.661 475.041 107.848 473.66C107.035 472.28 106.566 470.73 106.479 469.137V149.75C106.509 148.566 106.783 147.401 107.282 146.324C107.453 145.952 107.636 145.593 107.843 145.222L122.459 153.608C122.151 154.148 121.883 154.708 121.655 155.285C121.3 156.192 121.106 157.152 121.082 158.124V477.439C121.155 480.135 122.934 481.357 125.236 480.398Z" fill="#263238"/>
<path d="M198.865 416.065C201.849 416.065 202.165 419.36 202.165 420.774C201.987 423.606 201.143 426.359 199.699 428.816C198.256 431.273 196.252 433.368 193.846 434.934C192.881 435.537 191.773 435.884 190.631 435.94C187.647 435.94 187.33 432.646 187.33 431.232C187.51 428.4 188.353 425.647 189.794 423.188C191.235 420.73 193.235 418.632 195.637 417.06C196.61 416.466 197.721 416.124 198.865 416.065Z" fill="#6A8FD4"/>
<path d="M194.649 116.099C195.867 115.38 196.927 115.955 196.927 117.392C196.883 118.17 196.654 118.926 196.258 119.6C195.862 120.274 195.311 120.847 194.649 121.274C193.431 121.981 192.359 121.406 192.359 119.98C192.401 119.201 192.63 118.443 193.029 117.768C193.427 117.093 193.982 116.521 194.649 116.099Z" fill="#263238"/>
<path d="M179.936 135.015C181.056 134.38 181.958 134.895 181.958 136.213C181.921 136.902 181.718 137.573 181.367 138.171C181.015 138.768 180.525 139.276 179.936 139.651C178.815 140.286 177.914 139.771 177.914 138.453C177.953 137.764 178.156 137.094 178.508 136.497C178.859 135.899 179.348 135.392 179.936 135.015Z" fill="#263238"/>
<path d="M186.696 131.085L209.339 118.23C210.557 117.524 211.58 118.027 211.58 119.345C211.52 120.085 211.287 120.801 210.898 121.437C210.509 122.073 209.975 122.612 209.339 123.01L186.696 135.865C185.478 136.572 184.455 136.069 184.455 134.751C184.514 134.011 184.748 133.295 185.137 132.658C185.526 132.022 186.059 131.484 186.696 131.085Z" fill="#263238"/>
<path d="M268.291 73.761C267.95 71.365 266.013 70.5144 263.687 71.8442L125.809 150.133C124.429 150.976 123.296 152.157 122.52 153.56L107.904 145.174C108.692 143.782 109.828 142.611 111.205 141.771L248.997 63.4941C250.443 62.7732 252.041 62.3975 253.662 62.3975C255.283 62.3975 256.882 62.7732 258.327 63.4941L263.687 66.5131C264.935 67.328 265.993 68.3964 266.787 69.6466C267.581 70.8967 268.094 72.2996 268.291 73.761Z" fill="#37474F"/>
<path d="M232.128 83.4529C231.413 83.8288 230.617 84.0323 229.806 84.0469C228.995 84.0615 228.192 83.8867 227.463 83.5368C227.219 83.4343 227.008 83.269 226.851 83.0581C226.695 82.8472 226.599 82.5987 226.574 82.3388C226.574 82.0033 226.574 80.7574 226.574 80.41C226.613 80.111 226.73 79.8271 226.914 79.5857C227.097 79.3443 227.341 79.1537 227.622 79.0323L242.396 70.6463C243.114 70.2731 243.912 70.0711 244.724 70.0565C245.537 70.0419 246.341 70.2152 247.073 70.5624C247.313 70.6696 247.52 70.8366 247.674 71.0467C247.827 71.2568 247.923 71.5029 247.95 71.7604C247.95 72.1078 247.95 73.4017 247.95 73.7371C247.912 74.0378 247.795 74.3237 247.612 74.5672C247.428 74.8106 247.184 75.0034 246.903 75.1268L232.128 83.4529Z" fill="#6A8FD4"/>
<path opacity="0.25" d="M232.128 83.4529C231.413 83.8288 230.617 84.0323 229.806 84.0469C228.995 84.0615 228.192 83.8867 227.463 83.5368C227.219 83.4343 227.008 83.269 226.851 83.0581C226.695 82.8472 226.599 82.5987 226.574 82.3388C226.574 82.0033 226.574 80.7574 226.574 80.41C226.613 80.111 226.73 79.8271 226.914 79.5857C227.097 79.3443 227.341 79.1537 227.622 79.0323L242.396 70.6463C243.114 70.2731 243.912 70.0711 244.724 70.0565C245.537 70.0419 246.341 70.2152 247.073 70.5624C247.313 70.6696 247.52 70.8366 247.674 71.0467C247.827 71.2568 247.923 71.5029 247.95 71.7604C247.95 72.1078 247.95 73.4017 247.95 73.7371C247.912 74.0378 247.795 74.3237 247.612 74.5672C247.428 74.8106 247.184 75.0034 246.903 75.1268L232.128 83.4529Z" fill="black"/>
<path d="M232.128 81.5474L246.903 73.1614C248.243 72.3947 248.303 71.2087 247.061 70.5019C246.329 70.1547 245.525 69.9814 244.712 69.996C243.9 70.0105 243.102 70.2125 242.384 70.5857L227.61 78.9717C226.282 79.7265 226.209 80.9125 227.463 81.6193C228.192 81.9682 228.994 82.1435 229.805 82.1311C230.615 82.1186 231.411 81.9186 232.128 81.5474Z" fill="#6A8FD4"/>
<path opacity="0.3" d="M232.128 81.5474L246.903 73.1614C248.243 72.3947 248.303 71.2087 247.061 70.5019C246.329 70.1547 245.525 69.9814 244.712 69.996C243.9 70.0105 243.102 70.2125 242.384 70.5857L227.61 78.9717C226.282 79.7265 226.209 80.9125 227.463 81.6193C228.192 81.9682 228.994 82.1435 229.805 82.1311C230.615 82.1186 231.411 81.9186 232.128 81.5474Z" fill="black"/>
<path d="M115.712 197.873C115.683 197.076 115.463 196.297 115.069 195.599C114.675 194.902 114.119 194.306 113.446 193.86C113.226 193.7 112.965 193.603 112.692 193.58C112.419 193.556 112.145 193.608 111.899 193.728C111.619 193.896 110.499 194.507 110.206 194.687C109.962 194.869 109.769 195.11 109.648 195.387C109.526 195.665 109.479 195.968 109.512 196.268V231.873C109.542 232.669 109.761 233.446 110.152 234.144C110.544 234.841 111.096 235.438 111.765 235.886C111.986 236.032 112.24 236.119 112.505 236.14C112.769 236.161 113.035 236.115 113.276 236.006C113.592 235.85 114.725 235.203 115.03 235.023C115.274 234.841 115.467 234.6 115.588 234.323C115.71 234.046 115.757 233.742 115.724 233.442L115.712 197.873Z" fill="#6A8FD4"/>
<path opacity="0.3" d="M115.712 197.873C115.683 197.076 115.463 196.297 115.069 195.599C114.675 194.902 114.119 194.306 113.446 193.86C113.226 193.7 112.965 193.603 112.692 193.58C112.419 193.556 112.145 193.608 111.899 193.728C111.619 193.896 110.499 194.507 110.206 194.687C109.962 194.869 109.769 195.11 109.648 195.387C109.526 195.665 109.479 195.968 109.512 196.268V231.873C109.542 232.669 109.761 233.446 110.152 234.144C110.544 234.841 111.096 235.438 111.765 235.886C111.986 236.032 112.24 236.119 112.505 236.14C112.769 236.161 113.035 236.115 113.276 236.006C113.592 235.85 114.725 235.203 115.03 235.023C115.274 234.841 115.467 234.6 115.588 234.323C115.71 234.046 115.757 233.742 115.724 233.442L115.712 197.873Z" fill="black"/>
<path d="M114.03 198.868V234.472C114.03 235.982 113.02 236.629 111.765 235.922C111.096 235.474 110.543 234.877 110.152 234.18C109.76 233.482 109.541 232.704 109.512 231.909V196.268C109.512 194.747 110.523 194.1 111.765 194.806C112.443 195.258 113.002 195.862 113.396 196.568C113.79 197.274 114.007 198.063 114.03 198.868Z" fill="#6A8FD4"/>
<path opacity="0.4" d="M114.03 198.868V234.472C114.03 235.982 113.02 236.629 111.765 235.922C111.096 235.474 110.543 234.877 110.152 234.18C109.76 233.482 109.541 232.704 109.512 231.909V196.268C109.512 194.747 110.523 194.1 111.765 194.806C112.443 195.258 113.002 195.862 113.396 196.568C113.79 197.274 114.007 198.063 114.03 198.868Z" fill="black"/>
<path d="M115.712 245.59C115.683 244.793 115.463 244.014 115.069 243.316C114.675 242.619 114.119 242.023 113.446 241.577C113.226 241.417 112.965 241.32 112.692 241.296C112.419 241.273 112.145 241.325 111.899 241.445C111.619 241.613 110.499 242.224 110.206 242.403C109.962 242.586 109.769 242.827 109.648 243.104C109.526 243.381 109.479 243.685 109.512 243.985V260.757C109.543 261.551 109.764 262.326 110.155 263.021C110.546 263.716 111.098 264.311 111.765 264.758C111.978 264.913 112.23 265.009 112.493 265.037C112.756 265.064 113.022 265.022 113.264 264.914C113.58 264.758 114.713 264.111 115.018 263.932C115.261 263.751 115.453 263.512 115.575 263.237C115.696 262.962 115.744 262.66 115.712 262.362V245.59Z" fill="#6A8FD4"/>
<path opacity="0.3" d="M115.712 245.59C115.683 244.793 115.463 244.014 115.069 243.316C114.675 242.619 114.119 242.023 113.446 241.577C113.226 241.417 112.965 241.32 112.692 241.296C112.419 241.273 112.145 241.325 111.899 241.445C111.619 241.613 110.499 242.224 110.206 242.403C109.962 242.586 109.769 242.827 109.648 243.104C109.526 243.381 109.479 243.685 109.512 243.985V260.757C109.543 261.551 109.764 262.326 110.155 263.021C110.546 263.716 111.098 264.311 111.765 264.758C111.978 264.913 112.23 265.009 112.493 265.037C112.756 265.064 113.022 265.022 113.264 264.914C113.58 264.758 114.713 264.111 115.018 263.932C115.261 263.751 115.453 263.512 115.575 263.237C115.696 262.962 115.744 262.66 115.712 262.362V245.59Z" fill="black"/>
<path d="M114.03 246.488V263.26C114.03 264.769 113.02 265.428 111.765 264.71C111.096 264.261 110.543 263.664 110.152 262.967C109.76 262.27 109.541 261.492 109.512 260.696V243.924C109.512 242.415 110.523 241.756 111.765 242.463C112.437 242.912 112.992 243.511 113.385 244.21C113.779 244.909 114 245.689 114.03 246.488Z" fill="#6A8FD4"/>
<path opacity="0.4" d="M114.03 246.488V263.26C114.03 264.769 113.02 265.428 111.765 264.71C111.096 264.261 110.543 263.664 110.152 262.967C109.76 262.27 109.541 261.492 109.512 260.696V243.924C109.512 242.415 110.523 241.756 111.765 242.463C112.437 242.912 112.992 243.511 113.385 244.21C113.779 244.909 114 245.689 114.03 246.488Z" fill="black"/>
<path d="M156.075 215.867C156.196 216.449 156.359 217.021 156.562 217.58C157.354 219.689 158.779 221.677 158.657 223.93C158.523 226.469 156.489 228.434 154.93 230.459C152.904 233.136 151.554 236.248 150.991 239.539C150.427 242.83 150.667 246.205 151.69 249.387C153.188 253.263 155.265 256.897 157.854 260.169L163.736 268.376C165.515 270.673 167.786 272.559 170.387 273.898C175.442 276.709 181.082 278.348 186.878 278.69C196.406 279.323 205.883 276.879 213.869 271.73C222.334 266.219 218.607 252.083 227.267 246.919C237.742 240.69 242.736 219.054 229.898 210.021C229.898 210.021 231.969 196.771 228.169 193.393C224.382 190.276 219.695 188.407 214.771 188.05C207.974 187.355 201.166 188.661 194.381 188.637C187.397 188.614 180.42 189.043 173.493 189.918C171.057 190.242 167.622 191.116 166.306 193.453C165.935 194.369 165.834 195.369 166.014 196.34C165.995 197.879 165.436 199.365 164.431 200.545C162.92 202.342 160.777 203.552 159.169 205.241C157.842 206.649 156.871 208.345 156.334 210.191C155.796 212.037 155.708 213.981 156.075 215.867Z" fill="#263238"/>
<path d="M223.676 234.987C234.638 235.287 236.063 237.587 245.88 247.147C254.04 255.09 281.08 279.637 281.08 279.637L313.479 288.119L305.83 307.562C305.83 307.562 298.522 307.263 283.906 307.251C274.929 307.251 271.811 305.274 262.774 299.344C258.17 296.313 232.19 279.589 232.19 279.589L223.676 234.987Z" fill="#E6E6E6"/>
<path d="M349.324 248.801L289.946 269.382L273.576 338.866L274.904 340.256L331.358 319.543L350.639 250.19L349.324 248.801Z" fill="#6A8FD4"/>
<path opacity="0.35" d="M291.262 270.772L274.904 340.255L273.576 338.866L289.946 269.382L291.262 270.772Z" fill="black"/>
<path opacity="0.25" d="M350.64 250.19L291.262 270.772L274.904 340.256L331.359 319.543L350.64 250.19Z" fill="black"/>
<g opacity="0.2">
<path opacity="0.2" d="M322.527 305.406C323.075 306.772 327.631 309.779 334.22 309.24L335.329 305.238L322.527 305.406Z" fill="black"/>
</g>
<g opacity="0.1">
<path opacity="0.1" d="M332.758 264.423L333.246 262.087C333.514 260.805 330.03 261.476 325.463 263.596L314.744 266.783C310.177 268.903 305.865 270.485 305.585 271.767L305.098 274.091L332.758 264.423Z" fill="black"/>
</g>
<path d="M336.291 253.88C336.462 253.077 335.073 253.245 333.209 253.736L329.787 254.874C329.787 254.874 331.188 251.496 323.088 253.676C314.184 256.072 313.99 260.421 313.99 260.421C312.597 261.015 311.169 261.527 309.714 261.955C306.755 262.901 306.438 263.464 306.194 264.279L305.756 265.752L336.023 255.282C336.023 255.282 336.169 254.683 336.291 253.88Z" fill="#37474F"/>
<path d="M333.1 258.348C330.299 259.546 329.142 260.205 328.716 262.194C328.241 264.458 328.143 265.405 328.143 265.405L312.382 271.514C312.382 271.514 313.235 268.172 313.442 267.058C313.649 265.944 311.566 265.944 308.838 267.178L309.483 264.398L334.002 255.449L333.1 258.348Z" fill="#37474F"/>
<path d="M333.563 264.458C333.563 264.458 333.794 263.416 334.062 262.122C334.33 260.828 330.847 261.511 326.279 263.632L315.561 266.818C310.993 268.939 306.669 270.52 306.401 271.802L305.914 274.198L333.563 264.458Z" fill="#37474F"/>
<path d="M344.037 273.959C344.037 273.959 341.93 281.578 341.37 283.543C340.809 285.508 331.09 289.88 326.23 290.479C316.924 291.617 315.865 293.594 318.094 300.063C320.164 306.053 326.218 308.329 334.622 307.359C338.568 306.904 344.013 303.466 346.156 297.464C348.885 289.796 347.374 281.614 348.507 277.098C349.64 272.581 346.4 271.287 344.037 273.959Z" fill="#FFA8A7"/>
<path d="M252.03 378.736L245.733 382.33L243.09 383.828L208.45 403.487L203.724 406.122L195.746 410.651L198.182 386.2L202.835 338.855V338.364L203.054 336.243L209.144 274.342L211.812 247.256L212.749 237.54L213.066 234.401H213.237C216.058 233.629 219.039 233.629 221.86 234.401C222.489 234.589 223.1 234.829 223.687 235.12C227.341 236.905 229.777 240.379 231.799 244.033C232.296 244.923 232.743 245.839 233.139 246.776C234.64 250.327 235.799 254.009 236.598 257.774C238.193 264.722 240.252 271.827 241.068 283.028C241.196 285.911 241.041 288.8 240.605 291.653C240.056 299.205 239.963 306.781 240.325 314.344C241.348 331.475 245.733 339.238 252.03 378.736Z" fill="#E0E0E0"/>
<path d="M243.09 383.803L208.45 403.463L203.724 406.122L195.746 410.651L190.253 413.765L156.904 432.694C157.258 419.516 157.416 405.224 157.099 391.722C157.002 387.206 156.965 382.594 157.16 377.873C157.793 361.485 160.96 343.91 172.312 325.413L172.836 324.479C174.176 332.301 186.356 337.381 197.317 338.579L198.535 338.687C199.912 338.819 201.337 338.878 202.811 338.878H203.736C213.005 338.795 223.979 336.65 236.622 332.445C237.84 339.394 239.058 348.51 240.362 359.173C240.946 363.965 241.539 369.072 242.14 374.495C242.383 377.526 242.761 380.629 243.09 383.803Z" fill="#FFA8A7"/>
<path d="M245.733 382.306L243.09 383.803L208.45 403.463L203.724 406.122L195.746 410.651L190.253 413.765L156.904 432.694L153.25 434.766C153.433 420.582 153.554 406.685 153.542 397.964C153.542 389.853 153.725 382.641 154.176 376.244C155.065 363.617 156.916 354.117 160.01 346.929C163.64 339.062 167.934 331.508 172.848 324.347C172.848 324.347 175.893 334.458 198.669 336.051H198.815C200.155 336.147 201.568 336.207 203.054 336.231H204.784C233.139 336.231 236.269 329.199 236.269 329.199C239.039 339.539 241.231 350.022 242.834 360.598C243.435 364.336 244.015 368.329 244.576 372.578C244.99 375.693 245.38 378.928 245.733 382.306Z" fill="#6A8FD4"/>
<path opacity="0.4" d="M245.733 382.306L243.09 383.803L208.45 403.463L203.724 406.122L195.746 410.651L190.253 413.765L156.904 432.694L153.25 434.766C153.433 420.582 153.554 406.685 153.542 397.964C153.542 389.853 153.725 382.641 154.176 376.244C155.065 363.617 156.916 354.117 160.01 346.929C163.64 339.062 167.934 331.508 172.848 324.347C172.848 324.347 175.893 334.458 198.669 336.051H198.815C200.155 336.147 201.568 336.207 203.054 336.231H204.784C233.139 336.231 236.269 329.199 236.269 329.199C239.039 339.539 241.231 350.022 242.834 360.598C243.435 364.336 244.015 368.329 244.576 372.578C244.99 375.693 245.38 378.928 245.733 382.306Z" fill="black"/>
<path opacity="0.2" d="M229.473 366.408C229.473 366.408 226.306 376.304 212.981 381.85L212.348 384.881L208.45 403.462L203.725 406.122L206.55 385.624L207.768 376.711C216.003 375.871 223.681 372.226 229.473 366.408Z" fill="black"/>
<path d="M188.949 237.264L175.551 238.653C166.684 240.786 162.677 244.643 161.763 252.346C161.337 255.941 159.133 265.525 162.226 277.505C165.028 288.382 172.506 315.002 172.506 315.002C172.506 315.002 155.296 337.093 152.178 374.974C183.675 395.196 231.993 384.33 245.062 372.111C243.966 360.538 236.451 328.779 235.513 318.464C235.513 318.464 236.208 302.351 237.511 295.367C247.474 284.669 246.207 274.438 241.737 266.183C233.479 250.945 221.031 237.551 217 237.563L188.949 237.264Z" fill="#6A8FD4"/>
<path opacity="0.7" d="M188.949 237.264L175.551 238.653C166.684 240.786 162.677 244.643 161.763 252.346C161.337 255.941 159.133 265.525 162.226 277.505C165.028 288.382 172.506 315.002 172.506 315.002C172.506 315.002 155.296 337.093 152.178 374.974C183.675 395.196 231.993 384.33 245.062 372.111C243.966 360.538 236.451 328.779 235.513 318.464C235.513 318.464 236.208 302.351 237.511 295.367C247.474 284.669 246.207 274.438 241.737 266.183C233.479 250.945 221.031 237.551 217 237.563L188.949 237.264Z" fill="white"/>
<path d="M200.557 319.747C200.557 319.986 200.557 320.202 200.557 320.382V320.693C200.565 320.793 200.565 320.893 200.557 320.992C200.094 325.784 199.546 330.876 198.961 336.063C198.961 336.063 198.961 336.063 198.961 336.135C198.876 336.974 198.779 337.812 198.681 338.663C196.891 354.297 194.759 371.009 193.115 386.224C192.713 389.913 192.347 393.507 192.019 397.006C191.507 402.241 190.959 407.979 190.399 413.778L157.05 432.706L153.396 434.779L144.078 440.062C145.954 421.912 150.326 379.862 152.762 360.886C153.043 358.741 153.408 356.597 153.822 354.465L154.151 352.907L154.297 352.272C154.455 351.553 154.614 350.859 154.784 350.152C154.955 349.445 155.113 348.846 155.272 348.211C155.649 346.761 156.051 345.336 156.49 343.946C156.697 343.275 156.892 342.604 157.111 341.946C157.33 341.287 157.513 340.628 157.732 339.981C158.17 338.687 158.597 337.417 159.047 336.183C159.042 336.159 159.042 336.135 159.047 336.111C159.254 335.524 159.474 334.913 159.693 334.362C159.985 333.548 160.29 332.757 160.594 331.966L160.96 331.02C161.142 330.588 161.301 330.169 161.471 329.75C162.068 328.276 162.689 326.875 163.237 325.569C163.359 325.281 163.493 324.994 163.615 324.718C163.737 324.443 163.932 324.035 164.078 323.7C164.443 322.861 164.809 322.083 165.162 321.304C165.308 320.969 165.466 320.645 165.612 320.334C165.759 320.022 165.966 319.615 166.124 319.279L166.355 318.8L166.599 318.333C166.615 318.272 166.644 318.214 166.684 318.165C166.717 318.078 166.758 317.994 166.806 317.914C166.835 317.86 166.86 317.804 166.879 317.746C166.981 317.576 167.07 317.4 167.147 317.219L167.963 315.661C167.963 315.578 168.048 315.518 168.073 315.446L168.389 314.871L158.256 273.54L153.213 253.006V252.671C153.445 250.85 154.991 242.26 163.907 239.648C168.941 238.37 174.097 237.615 179.291 237.396C181.288 237.276 183.091 237.228 184.564 237.192H186.891H188.292C188.295 237.22 188.295 237.248 188.292 237.276C188.365 237.456 188.572 237.995 188.888 238.834C188.923 238.974 188.972 239.111 189.035 239.241C189.036 239.261 189.036 239.281 189.035 239.301C191.227 245.219 197.378 262.446 200.435 277.409C200.971 279.997 201.409 282.525 201.726 284.921C202.64 292.408 201.97 304.939 200.557 319.747Z" fill="#FAFAFA"/>
<path d="M168.718 295.08C168.718 295.08 169.936 289.173 171.726 276.415C173.809 261.703 173.066 254.431 170.813 249.783L158.109 273.611L168.243 314.942C168.243 314.942 157.829 333.703 153.627 354.477C163.59 326.791 174.491 318.536 174.491 318.536L168.718 295.08Z" fill="#E6E6E6"/>
<path d="M213.225 228.039C217.171 228.039 217.634 228.686 221.032 233.166C223.054 235.838 235.855 256.623 235.855 256.623C235.855 256.623 225.673 243.445 217.987 239.444C216.507 238.591 214.906 237.961 213.237 237.575L213.225 228.039Z" fill="#EBEBEB"/>
<path d="M184.041 272.21C184.041 271.012 183.919 268.424 183.712 265.166C182.701 249.184 182.214 234.808 187.695 233.61L188.17 235.815C184.175 236.665 185.49 257.235 185.99 264.974C186.209 268.305 186.379 270.964 186.318 272.258L184.041 272.21Z" fill="#6A8FD4"/>
<path d="M165.771 167.576L174.297 174.441C174.761 173.919 175.111 173.31 175.327 172.65C175.543 171.99 175.619 171.294 175.552 170.605C175.485 169.915 175.275 169.246 174.936 168.639C174.596 168.031 174.135 167.499 173.579 167.073C172.458 166.161 171.025 165.706 169.574 165.799C168.122 165.893 166.762 166.528 165.771 167.576Z" fill="#263238"/>
<path d="M188.037 229.058C188.037 223.798 175.576 215.88 169.145 204.822C162.714 193.765 165.93 175.579 174.748 172.788C174.821 172.788 175.065 170.451 175.101 170.284C175.589 168.174 176.411 166.152 177.537 164.294C181.13 158.208 188.743 153.512 195.807 152.529C223.736 148.528 236.574 159.202 241.702 170.943C243.364 174.892 244.105 179.158 243.87 183.426C243.726 186.561 242.543 189.563 240.503 191.975C238.462 194.387 235.675 196.075 232.567 196.783L188.037 229.058Z" fill="#263238"/>
<path d="M226.781 167.014C232.249 169.41 237.45 177.592 237.365 200.618C237.292 220.145 231.202 225.081 228.133 226.53C225.063 227.98 219.058 227.237 213.224 226.363V237.576C213.224 237.576 217.597 241.805 216.062 244.464C214.528 247.124 208.864 249.376 200.058 246.657C190.082 243.578 187.805 237.073 187.805 237.073L187.573 212.466C187.573 212.466 184.224 215.928 178.316 210.848C173.444 206.643 171.69 199.444 175.357 195.49C179.023 191.537 183.724 191.225 187.963 195.646L191.008 194.064C196.44 193.442 204.406 192.543 210.277 189.632C225.331 182.096 226.89 173.926 226.781 167.014Z" fill="#FFA8A7"/>
<path d="M188.049 192.459L188.122 203.241C188.826 203.259 189.526 203.136 190.18 202.878C190.834 202.621 191.427 202.234 191.923 201.743C192.419 201.251 192.808 200.665 193.066 200.02C193.323 199.376 193.444 198.686 193.42 197.994C193.407 196.573 192.845 195.21 191.847 194.182C190.849 193.154 189.491 192.538 188.049 192.459Z" fill="#263238"/>
<path d="M227.291 193.992C227.296 194.499 227.452 194.993 227.74 195.413C228.028 195.833 228.435 196.161 228.911 196.355C229.386 196.55 229.909 196.603 230.415 196.508C230.921 196.413 231.388 196.174 231.757 195.821C232.126 195.468 232.381 195.015 232.492 194.521C232.602 194.026 232.562 193.51 232.377 193.037C232.192 192.564 231.87 192.155 231.451 191.861C231.032 191.566 230.534 191.399 230.019 191.381C229.665 191.373 229.313 191.434 228.983 191.562C228.653 191.689 228.352 191.88 228.098 192.123C227.844 192.366 227.642 192.657 227.503 192.978C227.365 193.299 227.293 193.644 227.291 193.992Z" fill="black"/>
<path d="M206.28 195.142C206.259 195.514 206.312 195.886 206.437 196.237C206.562 196.588 206.756 196.911 207.009 197.188C207.261 197.465 207.566 197.691 207.907 197.852C208.248 198.012 208.618 198.105 208.996 198.125C209.379 198.128 209.76 198.057 210.115 197.915C210.47 197.774 210.793 197.564 211.066 197.299C211.339 197.034 211.556 196.719 211.704 196.372C211.853 196.024 211.93 195.651 211.931 195.274C211.943 194.909 211.882 194.545 211.751 194.204C211.62 193.862 211.422 193.549 211.168 193.282C210.915 193.016 210.61 192.801 210.272 192.651C209.933 192.5 209.568 192.417 209.197 192.405C208.826 192.393 208.456 192.453 208.109 192.582C207.761 192.711 207.443 192.906 207.172 193.155C206.901 193.405 206.683 193.705 206.53 194.038C206.377 194.37 206.292 194.729 206.28 195.094V195.142Z" fill="black"/>
<path d="M234.259 189.164L227.475 186.516C227.632 186.067 227.881 185.655 228.207 185.305C228.534 184.955 228.93 184.675 229.371 184.483C229.812 184.291 230.289 184.19 230.772 184.188C231.255 184.185 231.733 184.28 232.176 184.467C233.07 184.837 233.785 185.531 234.173 186.406C234.56 187.28 234.591 188.268 234.259 189.164Z" fill="black"/>
<path d="M220.863 191.884L220.521 207.865L229.254 205.96L220.863 191.884Z" fill="#F28F8F"/>
<path d="M210.569 211.124L219.095 213.724C218.971 214.295 218.729 214.836 218.383 215.312C218.038 215.787 217.597 216.188 217.087 216.489C216.578 216.79 216.011 216.985 215.422 217.062C214.833 217.138 214.234 217.095 213.663 216.934C212.492 216.534 211.521 215.711 210.947 214.631C210.372 213.552 210.237 212.298 210.569 211.124Z" fill="#B16668"/>
<path d="M215.281 217.078C215.272 215.911 214.794 214.796 213.952 213.975C213.11 213.154 211.973 212.693 210.787 212.693C210.669 212.687 210.551 212.687 210.434 212.693C210.477 213.629 210.806 214.53 211.377 215.28C211.949 216.03 212.736 216.594 213.637 216.898C214.166 217.07 214.726 217.131 215.281 217.078Z" fill="#F28F8F"/>
<path d="M213.225 226.422C207.074 225.703 194.394 222.229 192.336 217.161C193.161 219.705 194.743 221.946 196.879 223.594C200.704 226.829 213.225 230.195 213.225 230.195V226.422Z" fill="#F28F8F"/>
<path d="M187.744 228.1C186.136 227.776 184.711 228.471 183.395 230.651C182.08 232.832 179.193 237.48 179.193 237.48C179.193 237.48 177.695 252.802 179.193 256.648C180.484 259.954 194.723 272.354 194.723 272.354C194.723 272.354 191.008 286.119 190.874 290.635C190.74 295.152 199.4 312.295 200.447 321.064C200.447 321.064 203.529 293.51 202.201 283.579C199.911 266.364 191.702 244.129 187.829 237.061L187.744 228.1Z" fill="#EBEBEB"/>
<path d="M196.453 285.124C195.503 282.9 194.383 280.749 193.104 278.691C191.082 275.396 188.585 272.233 186.332 271.419C185.99 271.285 185.627 271.212 185.26 271.203H185.138C184.767 271.224 184.403 271.313 184.066 271.467C182.288 272.245 180.412 274.629 178.89 277.373C177.331 280.128 176.046 283.024 175.053 286.022C174.468 287.879 174.724 291.821 175.418 296.325C176.783 305.071 179.815 315.996 181.508 318.153C182.749 319.659 184.215 320.972 185.857 322.046C184.852 322.7 183.767 323.227 182.629 323.616C181.985 323.847 181.305 323.964 180.619 323.963V325.532H180.814C181.538 325.521 182.257 325.404 182.946 325.185C184.542 324.675 186.05 323.928 187.416 322.969C188.858 323.813 190.423 324.435 192.056 324.814C192.826 324.995 193.621 325.044 194.407 324.957L194.212 323.4C193.53 323.457 192.843 323.404 192.178 323.244C191.006 322.944 189.877 322.501 188.816 321.926C190.362 320.716 191.717 319.287 192.836 317.685C193.786 316.26 194.955 311.348 195.832 305.705C196.368 302.339 196.807 298.721 197.05 295.427C197.318 290.826 197.196 286.885 196.453 285.124ZM191.423 316.823C190.28 318.444 188.878 319.873 187.27 321.052C185.561 320.014 184.039 318.707 182.763 317.182C181.18 315.158 178.256 304.496 176.941 296.086C176.271 291.833 176.027 288.155 176.563 286.502C177.557 283.467 178.871 280.544 180.485 277.78C182.166 274.929 183.957 272.832 185.199 272.784C186.673 272.784 189.06 275.408 191.289 278.774C191.74 279.433 192.166 280.152 192.58 280.871C193.489 282.419 194.302 284.019 195.016 285.663C195.686 287.292 195.759 290.97 195.455 295.247C195.284 297.643 195.016 300.147 194.675 302.639C193.749 309.144 192.446 315.242 191.423 316.787V316.823Z" fill="#455A64"/>
<path d="M196.586 324.035C196.605 324.493 196.486 324.945 196.243 325.336C196 325.726 195.645 326.037 195.223 326.229C194.8 326.421 194.33 326.485 193.87 326.413C193.41 326.342 192.983 326.138 192.641 325.827C192.3 325.516 192.06 325.113 191.951 324.668C191.843 324.222 191.871 323.756 192.033 323.327C192.195 322.897 192.482 322.525 192.859 322.257C193.236 321.988 193.685 321.836 194.15 321.819C194.772 321.796 195.377 322.017 195.834 322.432C196.29 322.848 196.561 323.424 196.586 324.035Z" fill="#263238"/>
<path d="M182.931 324.658C182.953 325.115 182.835 325.569 182.594 325.961C182.353 326.353 181.999 326.665 181.577 326.859C181.155 327.053 180.684 327.119 180.223 327.049C179.763 326.979 179.334 326.776 178.992 326.465C178.649 326.155 178.407 325.752 178.298 325.306C178.189 324.861 178.216 324.394 178.378 323.964C178.539 323.534 178.826 323.161 179.203 322.892C179.58 322.623 180.03 322.47 180.495 322.453C180.803 322.44 181.109 322.487 181.398 322.591C181.687 322.695 181.952 322.854 182.178 323.059C182.404 323.263 182.587 323.51 182.717 323.784C182.846 324.059 182.919 324.355 182.931 324.658Z" fill="#263238"/>
<path d="M196.855 295.403L195.503 295.307C195.365 295.295 195.237 295.231 195.146 295.128C195.055 295.025 195.009 294.892 195.015 294.756C195.295 290.359 195.149 287.125 194.601 285.831C192.238 280.152 187.293 273.036 185.21 273.12C183.128 273.204 178.816 280.715 176.94 286.562C176.514 287.903 176.648 291.138 177.293 295.499C177.315 295.632 177.282 295.768 177.202 295.878C177.122 295.988 177.002 296.062 176.867 296.086L175.527 296.289C175.387 296.306 175.245 296.268 175.134 296.183C175.022 296.097 174.949 295.972 174.931 295.834C174.188 290.946 174.102 287.592 174.663 285.855C175.661 282.716 180.375 270.964 185.113 270.772C189.851 270.58 195.563 281.889 196.83 284.944C197.524 286.621 197.731 289.976 197.415 294.9C197.405 295.038 197.342 295.168 197.237 295.262C197.133 295.356 196.996 295.406 196.855 295.403Z" fill="#6A8FD4"/>
<path d="M167.646 239.492C158.731 239.349 154.614 242.308 148.962 249.747C144.48 255.653 127.038 287.568 121.253 296.888L89.7553 280.332C83.3852 276.007 81.3268 269.179 77.2952 265.189C73.2636 261.2 69.0859 260.397 64.6524 257.103C60.2188 253.808 58.4162 251.245 57.1373 254.323C55.8584 257.402 60.7913 262.386 61.7292 263.62C62.667 264.854 67.6121 267.597 61.1932 267.693C54.7744 267.789 42.0706 261.248 38.9769 260.086C35.8832 258.924 36.0659 262.554 37.5884 264.878C39.1109 267.202 39.0378 273.767 41.6078 277.565C44.3239 281.59 45.8099 283.339 51.8634 285.951C57.4905 288.347 69.3051 289.305 75.2855 292.983C81.2659 296.661 96.0889 309.623 105.102 317.398C116.564 327.282 124.468 329.091 130.851 323.161C137.05 316.775 143.335 309.288 146.405 305.49C154.675 295.247 167.756 271.946 167.756 271.946C167.756 271.946 173.42 259.966 167.646 239.492Z" fill="#FFA8A7"/>
<path d="M168.877 238.618C155.747 238.618 151.825 243.29 145.102 254.084C138.378 264.878 121.131 295.775 121.131 295.775L96.2964 282.98C96.2964 282.98 91.8264 292.66 87.0762 302.639C87.0762 302.639 101.132 314.619 107.782 320.286C114.432 325.952 123.251 330.397 131.424 323.461C140.157 316.057 168.475 277.589 168.475 277.589C175.198 265.585 173.7 247.388 168.877 238.618Z" fill="#F0F0F0"/>
<path d="M121.131 295.774C125.187 300.47 130.095 305.753 129.876 309.91C129.876 309.91 132.653 306.22 122.897 292.623L121.131 295.774Z" fill="#E0E0E0"/>
<path d="M74.1521 180.563L63.9939 186.29L64.0305 174.813L56.4302 170.5L38.7082 180.563V200.69L20.9863 210.753V230.879L28.5867 235.192L38.7082 229.442V240.954L46.3086 245.267L64.0305 235.192V215.066L81.7524 205.002V184.876L74.1521 180.563Z" fill="#6A8FD4"/>
<path d="M28.5879 215.065V235.192L46.3098 225.128V245.267L64.0317 235.192V215.065L81.7536 205.002V184.876L63.9708 194.975L64.0317 174.812L46.3098 184.876V205.002L28.5879 215.065Z" fill="#6A8FD4"/>
<g opacity="0.2">
<path opacity="0.2" d="M28.5867 235.191L20.9863 230.878V210.752L28.5867 215.065V235.191Z" fill="black"/>
<path opacity="0.2" d="M46.3093 184.875L38.709 180.562V200.689L46.3093 205.002V184.875Z" fill="black"/>
<path opacity="0.2" d="M46.3093 245.266L38.709 240.953V229.441L46.3093 225.128V245.266Z" fill="black"/>
</g>
<g opacity="0.5">
<path opacity="0.5" d="M46.3086 205.002L38.7082 200.689L20.9863 210.753L28.5866 215.066L46.3086 205.002Z" fill="white"/>
<path opacity="0.5" d="M64.0312 174.813L56.4309 170.5L38.709 180.563L46.3093 184.876L64.0312 174.813Z" fill="white"/>
<path opacity="0.5" d="M81.7536 184.875L74.1532 180.562L63.9951 186.289L63.9707 194.974L81.7536 184.875Z" fill="white"/>
</g>
<path d="M365.644 140.166C365.322 139.892 364.975 139.647 364.608 139.435C363.317 138.681 357.471 135.374 357.166 135.194C354.073 133.254 349.176 133.685 344.816 135.853C338.567 138.956 333.367 145.509 329.396 156.423C329.396 156.423 325.376 153.584 324.073 152.829C320.845 151.092 317.07 151.931 312.819 154.65C308.032 157.717 304.768 161.694 301.784 167.708V167.816C299.198 172.923 297.784 178.525 297.643 184.229C297.643 196.844 302.892 202.858 309.725 207.374C311.674 208.668 316.826 211.387 317.338 211.723C321.461 214.401 326.022 216.362 330.821 217.521L337.556 219.066L344.292 209.878C349.196 203.103 353.698 196.055 357.775 188.769C364.608 176.49 369.955 164.462 369.858 151.895C369.76 146.516 368.189 142.562 365.644 140.166Z" fill="#6A8FD4"/>
<path opacity="0.3" d="M365.644 140.166C365.322 139.892 364.975 139.647 364.608 139.435C363.317 138.681 357.471 135.374 357.166 135.194C354.073 133.254 349.176 133.685 344.816 135.853C338.567 138.956 333.367 145.509 329.396 156.423C329.396 156.423 325.376 153.584 324.073 152.829C320.845 151.092 317.07 151.931 312.819 154.65C308.032 157.717 304.768 161.694 301.784 167.708V167.816C299.198 172.923 297.784 178.525 297.643 184.229C297.643 196.844 302.892 202.858 309.725 207.374C311.674 208.668 316.826 211.387 317.338 211.723C321.461 214.401 326.022 216.362 330.821 217.521L337.556 219.066L344.292 209.878C349.196 203.103 353.698 196.055 357.775 188.769C364.608 176.49 369.955 164.462 369.858 151.895C369.76 146.516 368.189 142.562 365.644 140.166Z" fill="black"/>
<path d="M365.643 140.166C365.322 139.892 364.975 139.647 364.608 139.435C363.317 138.681 357.47 135.374 357.166 135.194C354.072 133.254 349.176 133.685 344.815 135.853C338.567 138.956 333.366 145.509 329.395 156.423C329.395 156.423 325.376 153.584 324.073 152.829C320.845 151.092 317.069 151.931 312.818 154.65C308.032 157.717 304.767 161.694 301.783 167.708V167.816C301.649 168.08 301.54 168.343 301.418 168.607L352.574 197.622C354.389 194.723 356.155 191.788 357.836 188.769C364.669 176.49 370.016 164.462 369.918 151.895C369.76 146.516 368.189 142.562 365.643 140.166Z" fill="#6A8FD4"/>
<path opacity="0.15" d="M365.643 140.166C365.322 139.892 364.975 139.647 364.608 139.435C363.317 138.681 357.47 135.374 357.166 135.194C354.072 133.254 349.176 133.685 344.815 135.853C338.567 138.956 333.366 145.509 329.395 156.423C329.395 156.423 325.376 153.584 324.073 152.829C320.845 151.092 317.069 151.931 312.818 154.65C308.032 157.717 304.767 161.694 301.783 167.708V167.816C301.649 168.08 301.54 168.343 301.418 168.607L352.574 197.622C354.389 194.723 356.155 191.788 357.836 188.769C364.669 176.49 370.016 164.462 369.918 151.895C369.76 146.516 368.189 142.562 365.643 140.166Z" fill="black"/>
<path d="M329.359 156.375L336.205 165.156L347.24 152.314L334.767 145.233C332.546 148.736 330.732 152.473 329.359 156.375Z" fill="#6A8FD4"/>
<path opacity="0.3" d="M329.359 156.375L336.205 165.156L347.24 152.314L334.767 145.233C332.546 148.736 330.732 152.473 329.359 156.375Z" fill="black"/>
<path d="M365.644 140.167C362.66 137.543 357.227 137.771 352.428 140.167C345.888 143.425 340.48 150.457 336.436 162.365C332.392 155.058 326.984 154.83 320.444 159.011C315.645 162.078 312.381 166.055 309.409 172.069L309.348 172.177C306.771 177.291 305.362 182.896 305.219 188.602C305.219 201.217 310.481 207.231 317.301 211.747C321.425 214.425 325.986 216.386 330.785 217.545L337.52 219.091L344.256 209.902C349.159 203.127 353.661 196.079 357.739 188.793C364.572 176.514 369.919 164.486 369.821 151.919C369.76 146.516 368.189 142.563 365.644 140.167Z" fill="#6A8FD4"/>
<g opacity="0.07">
<path opacity="0.07" d="M359.896 138.968C361.773 138.883 363.619 139.466 365.096 140.609C365.122 140.661 365.16 140.706 365.206 140.741C367.715 142.993 369.116 146.995 369.128 151.978C369.128 165.096 363.038 177.831 357.131 188.541C353.083 195.803 348.61 202.827 343.733 209.578L337.265 218.431L330.968 216.982C326.241 215.84 321.746 213.911 317.68 211.279C311.59 207.206 305.841 201.695 305.889 188.661C306.019 183.056 307.386 177.545 309.897 172.512V172.404C312.893 166.354 316.121 162.533 320.7 159.609C322.828 158.058 325.365 157.142 328.008 156.974C331.102 156.974 333.648 158.855 335.791 162.724C335.845 162.828 335.927 162.914 336.028 162.974C336.129 163.033 336.246 163.063 336.364 163.06H336.425C336.55 163.048 336.67 163.001 336.769 162.925C336.869 162.849 336.944 162.746 336.985 162.628C340.846 151.259 345.974 144.119 352.648 140.801C354.877 139.653 357.344 139.025 359.859 138.968H359.896ZM359.859 138.333C357.243 138.386 354.675 139.034 352.356 140.226C345.816 143.484 340.408 150.517 336.364 162.425C334.025 158.184 331.224 156.327 328.008 156.327C325.249 156.505 322.599 157.457 320.371 159.07C315.573 162.137 312.308 166.115 309.336 172.129L309.276 172.236C306.699 177.35 305.29 182.956 305.146 188.661C305.146 201.276 310.408 207.29 317.229 211.806C321.353 214.484 325.913 216.446 330.712 217.605L337.448 219.15L344.183 209.961C349.087 203.186 353.589 196.138 357.667 188.853C364.5 176.573 369.847 164.545 369.749 151.978C369.749 146.575 368.154 142.562 365.608 140.262C364 138.974 361.967 138.313 359.896 138.405L359.859 138.333Z" fill="black"/>
</g>
<path d="M364.901 174.129L351.795 181.581L346.923 164.15C346.854 163.886 346.696 163.654 346.474 163.491C346.253 163.327 345.982 163.243 345.705 163.252C345.42 163.246 345.142 163.339 344.92 163.514C344.697 163.689 344.544 163.935 344.487 164.21L336.899 198.305L330.516 181.126C330.504 180.808 330.363 180.508 330.125 180.293C329.888 180.077 329.573 179.963 329.25 179.976C328.927 179.988 328.622 180.127 328.403 180.36C328.184 180.594 328.068 180.904 328.08 181.222L323.769 196.28L309.348 204.475C309.822 205.153 310.334 205.805 310.882 206.428L325.498 198.149C325.781 197.988 325.99 197.727 326.083 197.419L329.481 185.534L336.022 203.097C336.109 203.343 336.275 203.554 336.494 203.699C336.714 203.844 336.976 203.914 337.24 203.9C337.51 203.886 337.768 203.785 337.973 203.611C338.178 203.438 338.319 203.202 338.373 202.941L345.802 169.613L349.724 183.761C349.771 183.943 349.86 184.112 349.985 184.254C350.11 184.396 350.267 184.507 350.444 184.578C350.621 184.649 350.812 184.678 351.002 184.663C351.192 184.648 351.376 184.59 351.539 184.492L363.183 177.891C363.853 176.633 364.389 175.387 364.901 174.129Z" fill="white"/>
<path d="M419.906 494.523C419.407 496.147 419.365 497.874 419.784 499.519C420.272 500.525 423.317 503.832 429.528 505.03C435.74 506.228 444.278 505.03 447.957 504.814C451.635 504.599 463.182 506.012 466.848 506.468C472.621 507.234 477.055 505.988 479.211 503.94C479.56 503.528 479.817 503.048 479.966 502.532C480.115 502.017 480.152 501.476 480.075 500.945C480.063 499.578 479.858 498.219 479.466 496.907L419.906 494.523Z" fill="#263238"/>
<path d="M478.516 490.965C478.626 491.432 478.736 491.911 478.833 492.391C479.395 494.801 479.572 497.283 479.357 499.746C478.614 501.543 476.58 502.538 474.935 503.041C470.587 504.407 467.286 504.239 462.475 503.292C457.637 502.599 452.748 502.302 447.859 502.406C444.071 502.657 438.858 503.376 435.07 503.029C431.849 502.897 428.67 502.258 425.655 501.136C423.134 500.082 420.552 498.74 419.93 496.152C419.188 490.761 421.49 488.389 424.084 486.88C426.678 485.37 430.369 485.49 434.315 485.239C437.884 484.999 440.49 484.999 443.669 484.759C446.418 484.628 449.149 484.255 451.83 483.645C454.266 482.902 456.702 479.895 457.701 479.788C457.701 479.788 473.596 479.668 475.106 479.788C476.86 479.931 477.396 485.274 477.615 486.437C477.786 487.347 477.822 488.329 478.066 489.204C478.224 489.791 478.37 490.378 478.516 490.965Z" fill="#37474F"/>
<path d="M429.539 502.31C429.04 498.429 428.321 490.019 435.629 485.155H436.543C433.261 484.221 429.777 484.221 426.494 485.155C420.685 486.676 418.102 491.3 419.552 496.188C419.576 496.14 420.867 500.873 429.539 502.31Z" fill="#FAFAFA"/>
<path d="M450.746 483.921C448.396 485.969 447.58 490.63 447.58 490.63C447.275 492.379 444.06 492.642 444.364 490.953C444.855 488.631 445.802 486.425 447.153 484.46C448.255 483.888 449.521 483.698 450.746 483.921Z" fill="#FAFAFA"/>
<path d="M444.158 484.723C442.385 486.43 441.226 488.659 440.857 491.073C440.528 492.75 437.848 492.726 438.043 491.073C438.043 491.073 438.348 486.939 440.857 485.011C441.343 484.705 441.897 484.519 442.471 484.469C443.046 484.419 443.625 484.506 444.158 484.723Z" fill="#FAFAFA"/>
<path d="M475.593 468.418C475.593 468.418 475.166 478.469 474.606 481.764C474.265 483.728 471.646 485.789 465.13 485.573C460.55 485.418 456.945 485.789 457.128 482.267L457.53 472L475.593 468.418Z" fill="#FFA8A7"/>
<path d="M485.812 444.675C485.581 447.418 485.203 449.898 486.348 452.917C487.98 457.254 491.44 459.243 493.474 460.944C495.613 463.029 497.588 465.272 499.381 467.652C501.378 470.048 501.902 471.474 504.898 474.086C506.392 475.216 508.157 475.946 510.023 476.205C511.889 476.463 513.791 476.241 515.544 475.559C518.138 474.469 519.039 473.607 518.881 469.689C518.723 465.772 506.031 464.442 506.031 464.442L485.812 444.675Z" fill="#263238"/>
<path d="M517.236 458.02C518.32 458.403 518.588 460.332 518.758 464.166C518.88 467.065 520.183 471.354 515.908 473.139C512.461 474.612 506.956 473.63 504.629 470.898C501.73 467.484 499.757 464.477 495.616 460.32C491.962 456.726 488.308 455.528 486.688 448.28C485.653 443.632 486.469 441.715 489.806 440.385C494.398 438.552 501.596 444.53 505.202 445.477C508.295 446.279 516.152 457.636 517.236 458.02Z" fill="#37474F"/>
<path d="M505.202 445.477L504.593 445.273C502.54 445.349 500.542 445.951 498.798 447.021C497.055 448.091 495.626 449.59 494.654 451.371C494.045 452.629 495.872 453.612 497.09 452.629C499.648 447.837 504.91 446.807 507.017 446.579C506.498 446.089 505.88 445.714 505.202 445.477Z" fill="#FAFAFA"/>
<path d="M508.163 447.657C506.235 447.835 504.382 448.481 502.771 449.537C501.159 450.593 499.84 452.026 498.931 453.707C498.322 454.905 500.209 455.947 501.367 454.905C502.236 453.406 503.428 452.112 504.858 451.112C506.289 450.113 507.924 449.432 509.649 449.119C509.125 448.64 508.638 448.124 508.163 447.657Z" fill="#FAFAFA"/>
<path d="M517.858 451.096L517.237 459.182C517.237 459.182 512.011 462.932 504.521 459.494C504.301 459.05 503.668 451.815 503.668 451.815L517.858 451.096Z" fill="#FFA8A7"/>
<path d="M488.796 453.611C488.796 453.611 489.149 445.022 501.561 443.836L502.279 444.207C500.867 442.053 498.7 440.485 496.189 439.799C492.073 438.756 488.808 439.799 486.64 442.362C484.472 444.926 486.652 451.946 488.796 453.611Z" fill="#FAFAFA"/>
<path d="M521.475 397.233C519.697 383.085 519.039 375.202 519.039 375.202C519.039 375.202 518.686 355.279 519.916 336.866C520.452 328.791 520.732 319.854 520.903 311.708C521.13 302.737 520.403 293.767 518.735 284.945C518.735 284.945 455.045 272.485 454.254 295.463C453.291 323.017 453.413 370.11 452.329 388.092C451.732 398.192 452.768 406.566 453.413 426.189C453.937 442.458 453.779 482.495 453.779 482.495C460.794 491.971 477.359 484.747 477.359 484.747C477.359 484.747 482.475 428.525 483.23 416.904C484.034 404.409 482.694 398.084 482.694 398.084L489.259 339.873C489.259 339.873 489.758 358.55 490.319 368.625C490.879 378.7 492.377 384.894 495.044 403.69C497.359 420.007 502.279 461.65 502.279 461.65C510.805 466.609 519.039 461.65 519.039 461.65C519.039 461.65 523.253 411.381 521.475 397.233Z" fill="#455A64"/>
<path d="M512.778 316.836C512.778 316.836 504.8 326.851 494.508 331.152C494.508 331.152 490.05 366.361 490.087 365.666L488.93 330.23C488.93 330.23 504.252 323.569 512.778 316.836Z" fill="#37474F"/>
<path d="M512.56 203.66C519.417 202.151 527.176 206.967 532.34 217.713C537.334 227.992 550.975 253.952 551.304 261.224C551.657 268.76 517.578 291.618 518.418 291.174C518.686 291.043 512.535 273.887 512.535 273.887L529.088 260.41L520.087 242.176L512.56 203.66Z" fill="#FFA8A7"/>
<path d="M508.955 202.043C514.728 201.348 525.191 203.493 529.186 210.321C534.984 220.205 540.27 231.634 547.005 246.405C547.005 246.405 542.012 257.043 527.639 258.05L519.028 243.195L508.955 202.043Z" fill="#37474F"/>
<path d="M479.893 193.142L480.891 214.107L502.011 212.993L501.366 188.638L479.893 193.142Z" fill="#FFA8A7"/>
<path d="M522.753 212.597C520.975 206.883 514.836 202.175 507.078 201.947C505.348 201.947 501.719 201.947 501.719 201.947C500.842 205.481 489.843 206.739 480.44 204.619C477.602 205.362 465.824 208.213 463.388 208.932C456.628 211.136 454.546 217.917 453.498 239.6C453.498 239.6 453.705 282.345 453.498 302.747C465.386 308.917 483.753 308.15 496.822 306.844C517.358 304.808 520.415 297.488 520.415 297.488C519.55 285.592 520.074 281.111 520.415 269.371C520.671 260.541 523.253 251.209 524.069 241.206C525.275 226.339 523.959 216.527 522.753 212.597Z" fill="#6A8FD4"/>
<path d="M476.592 197.119C471.72 196.783 465.63 200.605 464.059 208.787L468.029 207.745L476.592 197.119Z" fill="#6A8FD4"/>
<path opacity="0.3" d="M476.592 197.119C471.72 196.783 465.63 200.605 464.059 208.787L468.029 207.745L476.592 197.119Z" fill="black"/>
<path d="M480.161 198.868C483.815 200.066 494.472 199.899 498.041 198.868C501.61 197.838 501.573 196.281 501.573 196.281V194.52C503.631 194.514 505.642 195.128 507.334 196.281C509.612 198.102 513.534 204.667 513.424 207.817C513.315 210.968 506.47 219.282 493.266 219.079C480.063 218.875 472.646 214.071 470.368 210.908L468.078 207.734C468.078 207.734 471.208 201.408 474.29 198.749C475.87 197.242 477.896 196.269 480.075 195.969L480.161 198.868Z" fill="#6A8FD4"/>
<path opacity="0.2" d="M480.161 198.868C483.815 200.066 494.472 199.899 498.041 198.868C501.61 197.838 501.573 196.281 501.573 196.281V194.52C503.631 194.514 505.642 195.128 507.334 196.281C509.612 198.102 513.534 204.667 513.424 207.817C513.315 210.968 506.47 219.282 493.266 219.079C480.063 218.875 472.646 214.071 470.368 210.908L468.078 207.734C468.078 207.734 471.208 201.408 474.29 198.749C475.87 197.242 477.896 196.269 480.075 195.969L480.161 198.868Z" fill="black"/>
<path d="M465.679 167.434C465.679 167.434 460.649 174.945 461.221 175.676C461.794 176.407 465.496 177.09 465.496 177.09L465.679 167.434Z" fill="#F28F8F"/>
<path d="M479.661 146.636C469.479 148.757 465.411 151.692 464.777 168.811C464.168 185.463 466.3 190.95 468.517 193.19C470.015 194.7 478.358 194.975 482.56 193.825C487.822 192.4 499.722 188.255 505.288 179.893C511.841 170.045 513.558 156.699 506.506 151.225C496.677 143.521 483.815 145.774 479.661 146.636Z" fill="#FFA8A7"/>
<path d="M468.516 193.178C469.734 194.376 475.568 194.831 479.953 194.304L479.892 191.824C476.259 193.142 472.363 193.606 468.516 193.178Z" fill="#F28F8F"/>
<path d="M463.424 153.069C465.96 154.858 469.107 155.602 472.193 155.142C472.132 156.484 472.498 157.811 473.241 158.939C474.274 160.477 475.842 161.593 477.65 162.078C476.535 164.227 475.943 166.602 475.92 169.014C475.852 169.772 476.017 170.532 476.395 171.195C476.512 171.436 476.696 171.639 476.926 171.782C477.155 171.924 477.421 172 477.692 172C477.964 172 478.23 171.924 478.459 171.782C478.689 171.639 478.873 171.436 478.99 171.195C479.562 169.92 480.282 168.715 481.133 167.601C482.237 166.301 483.79 165.448 485.494 165.205C491.888 164.522 492.692 172.752 490.134 176.167C485.944 181.749 482.388 177.964 482.388 177.964C482.225 180.581 482.629 183.202 483.574 185.653C484.519 188.105 485.983 190.331 487.869 192.184C492.414 193.501 497.232 193.621 501.839 192.531C507.515 184.852 511.084 181.114 514.117 174.489C520.524 160.461 517.43 151.655 512.472 147.942C511.498 141.484 506.322 138.585 500.414 137.256C491.596 135.255 483.362 140.406 474.617 138.454C473.182 138.158 471.763 137.79 470.366 137.351C469.828 137.103 469.215 137.065 468.649 137.244C468.335 137.448 468.09 137.739 467.943 138.08C467.795 138.42 467.753 138.796 467.821 139.16C467.93 140.814 469.635 142.647 470.5 143.533C468.59 143.705 466.665 143.596 464.788 143.21C464.136 143.089 463.467 143.089 462.815 143.21C462.099 143.496 461.495 143.998 461.088 144.644C460.681 145.29 460.492 146.046 460.549 146.804C460.556 147.988 460.816 149.157 461.311 150.236C461.806 151.315 462.526 152.28 463.424 153.069Z" fill="#263238"/>
<path d="M512.633 150.026L518.723 146.432C518.238 145.638 517.453 145.065 516.539 144.841C515.626 144.616 514.659 144.757 513.851 145.234C513.043 145.711 512.461 146.483 512.233 147.382C512.005 148.281 512.148 149.232 512.633 150.026Z" fill="#263238"/>
<path d="M433.267 244.393C431.887 239.057 430.555 233.714 429.272 228.363C428.054 223.439 426.179 217.737 427.896 212.705C428.872 210.508 430.098 208.426 431.55 206.5C432.807 204.469 433.867 202.327 434.717 200.102C435.143 199.024 435.533 197.922 435.935 196.832C436.337 195.742 436.909 195.119 436.641 194.076C435.752 190.662 431.27 195.143 430.356 196.544C429.951 197.28 429.478 197.978 428.944 198.629C428.359 199.24 426.934 200.007 426.252 199.108C426.024 198.748 425.898 198.334 425.886 197.91C425.423 192.651 427.348 187.943 428.944 183.031C429.195 182.386 429.347 181.708 429.394 181.018C429.423 180.674 429.376 180.328 429.256 180.003C429.136 179.678 428.947 179.383 428.7 179.137C428.303 178.838 427.832 178.647 427.336 178.584C426.84 178.52 426.336 178.588 425.874 178.778C424.973 179.077 424.193 179.641 423.292 179.916C422.391 180.192 421.721 180.192 420.929 180.395C419.051 180.807 417.242 181.481 415.558 182.396C412.634 184.085 411.343 186.553 410.576 189.692C409.654 193.547 409.342 197.519 409.65 201.468C409.857 204.092 410.332 206.679 410.661 209.267L411.757 217.929C412.5 223.703 412.72 252.551 413.731 258.289C414.742 264.028 416.69 267.873 421.307 269.778C428.006 272.462 438.834 260.338 444.985 254.06L433.267 244.393Z" fill="#FFA8A7"/>
<path d="M430.819 241.122C426.508 244.297 421.137 249.58 420.053 254.875C420.053 254.875 418.981 245.351 430.819 236.905V241.122Z" fill="#F28F8F"/>
<path d="M463.047 209.063C458.905 209.447 452.085 209.591 445.142 216.934C437.091 225.512 424.68 242.428 424.68 242.428C424.68 242.428 426.3 255.893 439.478 260.721C439.478 260.721 458.638 242.751 462.754 235.012C466.871 227.273 467.797 214.442 463.047 209.063Z" fill="#37474F"/>
<path d="M457.53 180.599L452.292 177.832L455.301 175.304L444.424 170.296L449.174 167.589L437.457 161.455L444.424 167.505L438.76 170.296L451.537 175.735L448.383 178.838L457.53 180.599Z" fill="#6A8FD4"/>
<path d="M460.197 173.806L456.787 170.595L458.651 169.242L455.654 165.744L458.529 164.785L457.53 160.353L459.552 165.133L457.53 165.995L460.77 169.493L458.577 171.027L460.197 173.806Z" fill="#6A8FD4"/>
<path d="M458.212 185.666L451.781 190.602L449.405 187.164L443.778 190.171L441.476 185.918L432.768 188.11L442.84 183.366L445.727 187.284L450.404 184.816L452.353 188.11L458.212 185.666Z" fill="#6A8FD4"/>
<path d="M413.499 273.995C413.694 273.835 413.947 273.758 414.2 273.78C414.453 273.803 414.687 273.923 414.851 274.115C416.096 275.49 417.714 276.489 419.515 276.994C421.316 277.499 423.226 277.489 425.021 276.966C425.144 276.923 425.274 276.906 425.403 276.914C425.533 276.922 425.659 276.956 425.775 277.014C425.891 277.071 425.994 277.151 426.078 277.249C426.161 277.347 426.224 277.46 426.262 277.583C426.299 277.705 426.312 277.833 426.298 277.96C426.284 278.087 426.244 278.21 426.18 278.322C426.117 278.433 426.031 278.531 425.928 278.608C425.825 278.686 425.707 278.743 425.581 278.775C423.428 279.402 421.137 279.41 418.979 278.799C416.821 278.187 414.886 276.982 413.401 275.325C413.318 275.231 413.254 275.123 413.214 275.005C413.174 274.888 413.157 274.763 413.167 274.64C413.176 274.516 413.21 274.395 413.267 274.284C413.324 274.174 413.403 274.075 413.499 273.995Z" fill="#E0E0E0"/>
<path d="M414.472 280.332C414.643 280.192 414.859 280.115 415.081 280.115C415.304 280.115 415.52 280.192 415.69 280.332C416.682 281.037 417.818 281.521 419.02 281.748C420.221 281.976 421.458 281.943 422.645 281.65C422.897 281.604 423.157 281.658 423.369 281.799C423.581 281.94 423.728 282.158 423.778 282.405C423.803 282.526 423.803 282.651 423.778 282.772C423.753 282.893 423.705 283.009 423.634 283.111C423.564 283.214 423.474 283.301 423.369 283.369C423.264 283.437 423.146 283.484 423.023 283.507C421.555 283.842 420.031 283.856 418.558 283.548C417.085 283.239 415.698 282.616 414.497 281.722C414.401 281.642 414.322 281.543 414.265 281.433C414.208 281.322 414.174 281.201 414.165 281.077C414.155 280.954 414.172 280.829 414.212 280.712C414.252 280.594 414.316 280.485 414.399 280.392C414.421 280.369 414.446 280.349 414.472 280.332Z" fill="#E0E0E0"/>
<path d="M534.069 207.722C533.957 207.779 533.834 207.814 533.707 207.824C533.581 207.833 533.454 207.818 533.334 207.779C533.213 207.74 533.102 207.678 533.007 207.596C532.911 207.514 532.834 207.414 532.778 207.302C531.889 205.681 530.551 204.341 528.919 203.438C527.287 202.534 525.428 202.105 523.558 202.199C523.431 202.206 523.305 202.188 523.185 202.147C523.066 202.106 522.956 202.043 522.861 201.96C522.67 201.792 522.555 201.557 522.541 201.306C522.526 201.055 522.614 200.809 522.784 200.621C522.954 200.434 523.193 200.32 523.448 200.306C525.693 200.19 527.925 200.707 529.882 201.796C531.839 202.884 533.439 204.5 534.495 206.452C534.606 206.676 534.624 206.935 534.544 207.172C534.465 207.409 534.294 207.606 534.069 207.722Z" fill="#E0E0E0"/>
<path d="M534.606 201.372C534.402 201.478 534.166 201.507 533.942 201.454C533.718 201.401 533.521 201.27 533.388 201.085C532.601 200.181 531.627 199.455 530.53 198.954C529.433 198.454 528.239 198.192 527.03 198.186C526.904 198.181 526.779 198.152 526.664 198.1C526.55 198.048 526.446 197.974 526.36 197.883C526.274 197.792 526.207 197.685 526.163 197.568C526.12 197.451 526.099 197.327 526.104 197.203C526.109 197.079 526.139 196.957 526.191 196.844C526.244 196.731 526.319 196.629 526.412 196.544C526.505 196.46 526.613 196.394 526.732 196.351C526.851 196.308 526.977 196.288 527.103 196.293C528.605 196.307 530.085 196.645 531.44 197.283C532.796 197.92 533.992 198.842 534.947 199.983C535.084 200.185 535.135 200.433 535.09 200.672C535.044 200.912 534.906 201.124 534.703 201.264L534.606 201.372Z" fill="#E0E0E0"/>
<path d="M551.632 270.425C551.51 270.206 551.481 269.948 551.552 269.707C551.622 269.467 551.787 269.264 552.009 269.143C553.613 268.194 554.911 266.817 555.749 265.171C556.588 263.525 556.934 261.678 556.747 259.847C556.732 259.723 556.742 259.597 556.777 259.477C556.812 259.358 556.871 259.246 556.95 259.149C557.03 259.052 557.128 258.971 557.24 258.912C557.351 258.853 557.474 258.816 557.6 258.804C557.854 258.777 558.108 258.851 558.306 259.008C558.505 259.165 558.632 259.394 558.66 259.643C558.877 261.834 558.458 264.04 557.451 266.006C556.444 267.972 554.891 269.616 552.972 270.748C552.862 270.815 552.741 270.86 552.614 270.88C552.487 270.9 552.357 270.895 552.232 270.865C552.107 270.835 551.99 270.78 551.887 270.705C551.783 270.629 551.697 270.534 551.632 270.425Z" fill="#E0E0E0"/>
<path d="M558.101 270.653C557.992 270.458 557.955 270.231 557.998 270.013C558.04 269.794 558.158 269.597 558.332 269.455C559.216 268.642 559.91 267.65 560.366 266.547C560.822 265.445 561.03 264.258 560.975 263.069C560.975 262.818 561.076 262.578 561.257 262.4C561.437 262.223 561.682 262.123 561.937 262.123C562.192 262.123 562.437 262.223 562.618 262.4C562.798 262.578 562.9 262.818 562.9 263.069C562.952 264.544 562.678 266.013 562.098 267.374C561.518 268.735 560.644 269.955 559.538 270.952C559.439 271.029 559.325 271.087 559.203 271.12C559.082 271.154 558.955 271.164 558.829 271.15C558.703 271.135 558.582 271.097 558.472 271.036C558.361 270.976 558.264 270.894 558.186 270.797L558.101 270.653Z" fill="#E0E0E0"/>
<path d="M446.056 384.558C446.283 384.671 446.456 384.868 446.538 385.105C446.62 385.343 446.604 385.602 446.494 385.828C445.723 387.505 445.453 389.364 445.716 391.186C445.979 393.009 446.764 394.72 447.98 396.119C448.145 396.312 448.226 396.561 448.205 396.812C448.184 397.063 448.064 397.296 447.87 397.461C447.678 397.624 447.428 397.705 447.174 397.687C446.921 397.669 446.685 397.553 446.518 397.365C445.058 395.681 444.117 393.621 443.807 391.429C443.496 389.236 443.828 387.002 444.765 384.99C444.88 384.766 445.079 384.595 445.321 384.515C445.562 384.434 445.826 384.45 446.056 384.558Z" fill="#E0E0E0"/>
<path d="M440.6 387.973C440.808 388.069 440.974 388.236 441.068 388.442C441.162 388.649 441.177 388.882 441.112 389.099C440.856 390.263 440.86 391.467 441.123 392.629C441.385 393.792 441.901 394.884 442.634 395.831C442.778 396.037 442.834 396.291 442.791 396.537C442.748 396.783 442.608 397.003 442.403 397.149C442.194 397.294 441.936 397.351 441.685 397.308C441.434 397.265 441.21 397.126 441.063 396.922C440.16 395.737 439.531 394.373 439.22 392.925C438.908 391.476 438.922 389.978 439.26 388.536C439.298 388.415 439.359 388.304 439.441 388.207C439.523 388.111 439.623 388.031 439.737 387.973C439.85 387.915 439.974 387.88 440.101 387.869C440.229 387.859 440.357 387.874 440.478 387.913L440.6 387.973Z" fill="#E0E0E0"/>
<path d="M374.474 55.647C374.414 54.5299 374.086 53.4426 373.516 52.4743C372.947 51.506 372.152 50.6842 371.197 50.0763L368.542 48.5548C367.527 48.0551 366.407 47.7949 365.272 47.7949C364.136 47.7949 363.017 48.0551 362.001 48.5548L300.31 83.6203C299.356 84.2296 298.563 85.0518 297.993 86.0198C297.424 86.9878 297.095 88.0743 297.033 89.191V120.567C297.096 121.683 297.425 122.769 297.995 123.737C298.564 124.705 299.357 125.527 300.31 126.137L302.977 127.647C303.99 128.155 305.111 128.42 306.247 128.42C307.384 128.42 308.505 128.155 309.518 127.647L371.197 92.5933C372.152 91.9853 372.947 91.1635 373.516 90.1952C374.086 89.2269 374.414 88.1397 374.474 87.0226V55.647Z" fill="#6A8FD4"/>
<path opacity="0.5" d="M374.474 55.647C374.414 54.5299 374.086 53.4426 373.516 52.4743C372.947 51.506 372.152 50.6842 371.197 50.0763L368.542 48.5548C367.527 48.0551 366.407 47.7949 365.272 47.7949C364.136 47.7949 363.017 48.0551 362.001 48.5548L300.31 83.6203C299.356 84.2296 298.563 85.0518 297.993 86.0198C297.424 86.9878 297.095 88.0743 297.033 89.191V120.567C297.096 121.683 297.425 122.769 297.995 123.737C298.564 124.705 299.357 125.527 300.31 126.137L302.977 127.647C303.99 128.155 305.111 128.42 306.247 128.42C307.384 128.42 308.505 128.155 309.518 127.647L371.197 92.5933C372.152 91.9853 372.947 91.1635 373.516 90.1952C374.086 89.2269 374.414 88.1397 374.474 87.0226V55.647Z" fill="white"/>
<path opacity="0.2" d="M297.033 120.567C297.096 121.683 297.425 122.77 297.995 123.737C298.564 124.705 299.357 125.528 300.31 126.138L302.977 127.647C303.898 128.104 304.908 128.363 305.939 128.409C306.969 128.454 307.998 128.284 308.957 127.911C307.411 128.486 306.241 127.635 306.241 125.79V94.4146C306.281 93.2928 306.612 92.1998 307.204 91.2399L297.995 86.0166C297.403 86.9759 297.071 88.0693 297.033 89.1913V120.567Z" fill="black"/>
<path opacity="0.3" d="M374.364 54.7365C373.987 53.3708 372.72 52.9275 371.21 53.7901L309.518 88.8436C308.547 89.4296 307.749 90.2557 307.204 91.2396L298.008 86.0163C298.552 85.0355 299.345 84.2101 300.31 83.6203L361.989 48.5668C363.002 48.0588 364.123 47.7939 365.26 47.7939C366.397 47.7939 367.517 48.0588 368.53 48.5668L371.21 50.0763C372.028 50.6029 372.73 51.2874 373.272 52.0884C373.815 52.8894 374.186 53.7903 374.364 54.7365Z" fill="white"/>
<path d="M306.254 104.561L297.058 99.3379L285.974 109.832C285.808 109.997 285.681 110.198 285.605 110.418C285.529 110.638 285.504 110.872 285.534 111.103C285.563 111.334 285.645 111.555 285.774 111.75C285.904 111.945 286.076 112.109 286.279 112.228L295.329 117.404C295.703 117.597 296.125 117.684 296.547 117.655L306.291 115.822V104.561H306.254Z" fill="#6A8FD4"/>
<path opacity="0.5" d="M306.254 104.561L297.058 99.3379L285.974 109.832C285.808 109.997 285.681 110.198 285.605 110.418C285.529 110.638 285.504 110.872 285.534 111.103C285.563 111.334 285.645 111.555 285.774 111.75C285.904 111.945 286.076 112.109 286.279 112.228L295.329 117.404C295.703 117.597 296.125 117.684 296.547 117.655L306.291 115.822V104.561H306.254Z" fill="white"/>
<path opacity="0.3" d="M295.329 117.404L290.457 114.661L289.885 114.289L287.278 112.804L286.962 112.612L286.267 112.217C286.064 112.097 285.892 111.934 285.763 111.739C285.634 111.544 285.551 111.322 285.522 111.092C285.492 110.861 285.517 110.626 285.593 110.406C285.67 110.186 285.796 109.986 285.963 109.821L297.047 99.3262L306.255 104.561L295.171 115.008C294.995 115.162 294.857 115.353 294.767 115.567C294.678 115.782 294.639 116.013 294.655 116.244C294.67 116.475 294.739 116.7 294.856 116.901C294.972 117.102 295.134 117.274 295.329 117.404Z" fill="white"/>
<path d="M324.269 94.9179C322.997 95.7321 321.937 96.8302 321.177 98.1229C320.418 99.4156 319.979 100.867 319.896 102.358C319.896 105.089 321.857 106.203 324.269 104.837C325.54 104.023 326.598 102.924 327.355 101.631C328.113 100.338 328.55 98.888 328.63 97.3978C328.63 94.6424 326.681 93.5522 324.269 94.9179Z" fill="white"/>
<path d="M340.358 85.7648C339.087 86.5796 338.03 87.6781 337.272 88.9709C336.515 90.2637 336.078 91.7142 335.998 93.2044C335.998 95.9358 337.947 97.05 340.358 95.6723C341.628 94.8586 342.684 93.762 343.442 92.4714C344.2 91.1809 344.637 89.7327 344.719 88.2447C344.694 85.5012 342.77 84.3871 340.358 85.7648Z" fill="white"/>
<path d="M356.448 76.6004C355.179 77.4173 354.123 78.5164 353.366 79.8087C352.609 81.1011 352.171 82.5505 352.088 84.04C352.088 86.7834 354.037 87.8856 356.448 86.5199C357.723 85.7045 358.783 84.6045 359.543 83.3096C360.303 82.0146 360.741 80.5614 360.821 79.0683C360.821 76.3489 358.86 75.2347 356.448 76.6004Z" fill="white"/>
<path d="M493.219 117.152L488.797 109.018L492.354 98.9188V92.7012L481.465 98.8829V105.065L486.142 113.043C486.219 113.162 486.329 113.258 486.459 113.319L493.219 117.152Z" fill="#6A8FD4"/>
<path opacity="0.2" d="M493.219 117.152L488.797 109.018L492.354 98.9188V92.7012L481.465 98.8829V105.065L486.142 113.043C486.219 113.162 486.329 113.258 486.459 113.319L493.219 117.152Z" fill="black"/>
<path d="M526.287 52.4484C526.227 51.3344 525.899 50.2502 525.332 49.2842C524.765 48.3182 523.974 47.4977 523.023 46.8896L520.367 45.3802C519.357 44.8723 518.238 44.6074 517.103 44.6074C515.968 44.6074 514.85 44.8723 513.839 45.3802L452.294 80.3498C451.347 80.9654 450.559 81.7892 449.993 82.7561C449.426 83.723 449.096 84.8064 449.029 85.9205V117.224C449.09 118.338 449.417 119.422 449.984 120.388C450.551 121.354 451.343 122.175 452.294 122.783L454.949 124.292C455.962 124.79 457.08 125.049 458.213 125.049C459.346 125.049 460.464 124.79 461.477 124.292L488.273 108.958L492.95 116.913C493.018 117.019 493.114 117.105 493.228 117.16C493.343 117.216 493.47 117.238 493.597 117.226C493.724 117.213 493.845 117.166 493.946 117.09C494.047 117.013 494.124 116.91 494.168 116.793L499.113 102.788L522.962 89.3108C523.913 88.7027 524.704 87.8822 525.271 86.9162C525.838 85.9502 526.166 84.8661 526.226 83.7521L526.287 52.4484Z" fill="#6A8FD4"/>
<path d="M467.471 91.983L516.678 64.0336C518.139 63.207 519.321 63.794 519.321 65.3514C519.255 66.2221 518.981 67.0652 518.522 67.8124C518.062 68.5596 517.431 69.1899 516.678 69.6522L467.471 97.6016C466.021 98.4282 464.84 97.8412 464.84 96.2838C464.906 95.4144 465.178 94.5724 465.635 93.8254C466.092 93.0784 466.721 92.4474 467.471 91.983Z" fill="white"/>
<path d="M467.471 104.43L516.678 76.493C518.139 75.6663 519.321 76.2534 519.321 77.7988C519.256 78.6715 518.984 79.517 518.524 80.2664C518.065 81.0159 517.432 81.6481 516.678 82.1116L467.471 110.049C466.021 110.888 464.84 110.289 464.84 108.743C464.904 107.872 465.175 107.027 465.632 106.278C466.089 105.529 466.719 104.896 467.471 104.43Z" fill="white"/>
<path opacity="0.2" d="M449.029 117.225C449.09 118.338 449.417 119.423 449.984 120.389C450.551 121.355 451.343 122.175 452.294 122.783L454.949 124.293C455.869 124.748 456.876 125.006 457.904 125.052C458.933 125.097 459.959 124.928 460.917 124.556C459.382 125.119 458.213 124.269 458.213 122.436V91.1321C458.252 90.0157 458.579 88.9274 459.163 87.9694L449.979 82.7461C449.395 83.7084 449.068 84.8006 449.029 85.9208V117.225Z" fill="black"/>
<path opacity="0.2" d="M526.178 51.5143C525.801 50.1486 524.534 49.7173 523.024 50.5679L461.478 85.5495C460.509 86.1344 459.715 86.961 459.176 87.9455L449.992 82.7342C450.539 81.755 451.331 80.93 452.294 80.3382L513.828 45.3566C514.843 44.8569 515.963 44.5967 517.098 44.5967C518.233 44.5967 519.353 44.8569 520.368 45.3566L523.024 46.866C523.843 47.3887 524.546 48.0706 525.089 48.8699C525.631 49.6692 526.002 50.569 526.178 51.5143Z" fill="white"/>
</svg>
